{
	"asset":{
		"generator":"Khronos glTF Blender I/O v3.6.28",
		"version":"2.0"
	},
	"scene":0,
	"scenes":[
		{
			"name":"Scene",
			"nodes":[
				0
			]
		}
	],
	"nodes":[
		{
			"mesh":0,
			"name":"path2466",
			"rotation":[
				-0.70710688829422,
				0,
				0,
				0.7071066498756409
			],
			"scale":[
				-186.99583435058594,
				-186.995849609375,
				-186.995849609375
			],
			"translation":[
				2.9989209175109863,
				-2.460339307785034,
				0
			]
		}
	],
	"materials":[
		{
			"doubleSided":true,
			"name":"SVGMat.003",
			"pbrMetallicRoughness":{
				"metallicFactor":0,
				"roughnessFactor":0.4000000059604645
			}
		}
	],
	"meshes":[
		{
			"name":"path2466",
			"primitives":[
				{
					"attributes":{
						"POSITION":0,
						"NORMAL":1,
						"TEXCOORD_0":2
					},
					"indices":3,
					"material":0
				}
			]
		}
	],
	"accessors":[
		{
			"bufferView":0,
			"componentType":5126,
			"count":4427,
			"max":[
				0.022139066830277443,
				0.0006743563571944833,
				-0.007074939087033272
			],
			"min":[
				0.009722224436700344,
				-0.0006743546109646559,
				-0.019500616937875748
			],
			"type":"VEC3"
		},
		{
			"bufferView":1,
			"componentType":5126,
			"count":4427,
			"type":"VEC3"
		},
		{
			"bufferView":2,
			"componentType":5126,
			"count":4427,
			"type":"VEC2"
		},
		{
			"bufferView":3,
			"componentType":5123,
			"count":19056,
			"type":"SCALAR"
		}
	],
	"bufferViews":[
		{
			"buffer":0,
			"byteLength":53124,
			"byteOffset":0,
			"target":34962
		},
		{
			"buffer":0,
			"byteLength":53124,
			"byteOffset":53124,
			"target":34962
		},
		{
			"buffer":0,
			"byteLength":35416,
			"byteOffset":106248,
			"target":34962
		},
		{
			"buffer":0,
			"byteLength":38112,
			"byteOffset":141664,
			"target":34963
		}
	],
	"buffers":[
		{
			"byteLength":179776,
			"uri":"data:application/octet-stream;base64,"
		}
	]
}
