{
	"asset":{
		"generator":"Khronos glTF Blender I/O v3.6.28",
		"version":"2.0"
	},
	"scene":0,
	"scenes":[
		{
			"name":"Scene",
			"nodes":[
				0
			]
		}
	],
	"nodes":[
		{
			"mesh":0,
			"name":"path2466",
			"rotation":[
				0,
				0.7071068286895752,
				0.7071068286895752,
				5.338508302088485e-08
			],
			"translation":[
				0.009207526221871376,
				0,
				-0.015306703746318817
			]
		}
	],
	"materials":[
		{
			"doubleSided":true,
			"name":"SVGMat.003",
			"pbrMetallicRoughness":{
				"baseColorFactor":[
					1,
					1,
					1,
					1
				],
				"metallicFactor":0,
				"roughnessFactor":0.4000000059604645
			}
		}
	],
	"meshes":[
		{
			"name":"path2466",
			"primitives":[
				{
					"attributes":{
						"POSITION":0,
						"NORMAL":1
					},
					"indices":2,
					"material":0
				}
			]
		}
	],
	"accessors":[
		{
			"bufferView":0,
			"componentType":5126,
			"count":1122,
			"max":[
				2.785012722015381,
				2.3842187601985643e-07,
				2.668505907058716
			],
			"min":[
				-2.3549716472625732,
				-0.1300034523010254,
				-2.475040912628174
			],
			"type":"VEC3"
		},
		{
			"bufferView":1,
			"componentType":5126,
			"count":1122,
			"type":"VEC3"
		},
		{
			"bufferView":2,
			"componentType":5123,
			"count":2322,
			"type":"SCALAR"
		}
	],
	"bufferViews":[
		{
			"buffer":0,
			"byteLength":13464,
			"byteOffset":0,
			"target":34962
		},
		{
			"buffer":0,
			"byteLength":13464,
			"byteOffset":13464,
			"target":34962
		},
		{
			"buffer":0,
			"byteLength":4644,
			"byteOffset":26928,
			"target":34963
		}
	],
	"buffers":[
		{
			"byteLength":31572,
			"uri":"data:application/octet-stream;base64,"
		}
	]
}
