{
	"asset":{
		"generator":"Khronos glTF Blender I/O v3.6.28",
		"version":"2.0"
	},
	"scene":0,
	"scenes":[
		{
			"name":"Scene",
			"nodes":[
				0
			]
		}
	],
	"nodes":[
		{
			"mesh":0,
			"name":"path2466",
			"rotation":[
				0,
				0.7071068286895752,
				0.7071068286895752,
				5.338508302088485e-08
			],
			"translation":[
				0.009207526221871376,
				0,
				-0.015306703746318817
			]
		}
	],
	"materials":[
		{
			"doubleSided":true,
			"name":"SVGMat.003",
			"pbrMetallicRoughness":{
				"baseColorFactor":[
					1,
					1,
					1,
					1
				],
				"metallicFactor":0,
				"roughnessFactor":0.4000000059604645
			}
		}
	],
	"meshes":[
		{
			"name":"path2466",
			"primitives":[
				{
					"attributes":{
						"POSITION":0,
						"NORMAL":1,
						"TEXCOORD_0":2
					},
					"indices":3,
					"material":0
				}
			]
		}
	],
	"accessors":[
		{
			"bufferView":0,
			"componentType":5126,
			"count":1424,
			"max":[
				2.7857887744903564,
				0,
				2.6679129600524902
			],
			"min":[
				-2.355792284011841,
				-0.3499999940395355,
				-2.475041627883911
			],
			"type":"VEC3"
		},
		{
			"bufferView":1,
			"componentType":5126,
			"count":1424,
			"type":"VEC3"
		},
		{
			"bufferView":2,
			"componentType":5126,
			"count":1424,
			"type":"VEC2"
		},
		{
			"bufferView":3,
			"componentType":5123,
			"count":3156,
			"type":"SCALAR"
		}
	],
	"bufferViews":[
		{
			"buffer":0,
			"byteLength":17088,
			"byteOffset":0,
			"target":34962
		},
		{
			"buffer":0,
			"byteLength":17088,
			"byteOffset":17088,
			"target":34962
		},
		{
			"buffer":0,
			"byteLength":11392,
			"byteOffset":34176,
			"target":34962
		},
		{
			"buffer":0,
			"byteLength":6312,
			"byteOffset":45568,
			"target":34963
		}
	],
	"buffers":[
		{
			"byteLength":51880,
			"uri":"data:application/octet-stream;base64,"
		}
	]
}
