{
	"asset":{
		"generator":"Khronos glTF Blender I/O v3.6.28",
		"version":"2.0"
	},
	"scene":0,
	"scenes":[
		{
			"name":"Scene",
			"nodes":[
				0
			]
		}
	],
	"nodes":[
		{
			"mesh":0,
			"name":"path2466",
			"rotation":[
				-0.70710688829422,
				0,
				0,
				0.7071066498756409
			],
			"scale":[
				-186.99583435058594,
				-186.995849609375,
				-186.995849609375
			],
			"translation":[
				2.9989209175109863,
				-0.4299619495868683,
				0
			]
		}
	],
	"materials":[
		{
			"doubleSided":true,
			"name":"SVGMat.003",
			"pbrMetallicRoughness":{
				"metallicFactor":0,
				"roughnessFactor":0.4000000059604645
			}
		}
	],
	"meshes":[
		{
			"name":"path2466",
			"primitives":[
				{
					"attributes":{
						"POSITION":0,
						"NORMAL":1,
						"TEXCOORD_0":2
					},
					"indices":3,
					"material":0
				}
			]
		}
	],
	"accessors":[
		{
			"bufferView":0,
			"componentType":5126,
			"count":4426,
			"max":[
				0.027962926775217056,
				0.0013000043109059334,
				-0.0022471994161605835
			],
			"min":[
				0.004026096314191818,
				-0.0013000024482607841,
				-0.026201069355010986
			],
			"type":"VEC3"
		},
		{
			"bufferView":1,
			"componentType":5126,
			"count":4426,
			"type":"VEC3"
		},
		{
			"bufferView":2,
			"componentType":5126,
			"count":4426,
			"type":"VEC2"
		},
		{
			"bufferView":3,
			"componentType":5123,
			"count":19056,
			"type":"SCALAR"
		}
	],
	"bufferViews":[
		{
			"buffer":0,
			"byteLength":53112,
			"byteOffset":0,
			"target":34962
		},
		{
			"buffer":0,
			"byteLength":53112,
			"byteOffset":53112,
			"target":34962
		},
		{
			"buffer":0,
			"byteLength":35408,
			"byteOffset":106224,
			"target":34962
		},
		{
			"buffer":0,
			"byteLength":38112,
			"byteOffset":141632,
			"target":34963
		}
	],
	"buffers":[
		{
			"byteLength":179744,
			"uri":"data:application/octet-stream;base64,"
		}
	]
}
